<svg xmlns="http://www.w3.org/2000/svg" width="256" height="256" viewBox="0 0 256 256" fill="none" stroke="currentColor" stroke-width="22" stroke-linecap="round" stroke-linejoin="round">
  <mask id="knock" maskUnits="userSpaceOnUse" x="0" y="0" width="256" height="256">
    <rect width="256" height="256" fill="#ffffff" stroke="none"/>
    <g fill="#000000" stroke="#000000" stroke-width="50">
      <rect x="172" y="48" width="36" height="64" rx="18"/>
      <rect x="144" y="112" width="92" height="30" rx="14"/>
      <rect x="144" y="142" width="92" height="66"/>
    </g>
  </mask>
  <g mask="url(#knock)">
    <rect x="20" y="48" width="170" height="160" rx="22"/>
    <path d="M30 198 L90 130 L146 196"/>
  </g>
  <path d="M172 112 V66 A18 18 0 0 1 208 66 V112"/>
  <path d="M144 142 V126 A14 14 0 0 1 158 112 H222 A14 14 0 0 1 236 126 V142 Z"/>
  <path d="M144 142 V208 H236 V142"/>
</svg>
